<svg xmlns="http://www.w3.org/2000/svg" width="1600" height="900" viewBox="0 0 1600 900">

<rect width="1600" height="900" fill="#3a3432"/>
<rect width="1600" height="330" fill="#768495"/>
<rect y="330" width="1600" height="210" fill="#56697a"/>
<rect y="540" width="1600" height="360" fill="#8a785a"/>
<polygon points="0,320 210,220 450,250 680,180 910,220 1220,150 1600,240 1600,330 0,330" fill="#41473a"/>
<rect x="960" y="492" width="640" height="72" fill="#493727"/>
<rect x="1020" y="564" width="44" height="146" fill="#493727"/>
<rect x="1190" y="564" width="44" height="146" fill="#493727"/>
<rect x="1360" y="564" width="44" height="146" fill="#493727"/>
<polygon points="310,378 530,318 768,352 786,480 284,480" fill="#6a5038"/>
<polygon points="530,318 768,352 786,480 540,480" fill="#493727" opacity="0.45"/>
<rect x="510" y="252" width="26" height="144" fill="#493727"/>
<polygon points="523,268 668,332 523,344" fill="#c0b7a6"/>
<polygon points="523,344 668,332 523,410" fill="#9f9585"/>
<rect x="1110" y="454" width="120" height="88" fill="#6a5038"/>
<rect x="1244" y="430" width="140" height="112" fill="#493727"/>
<rect x="1088" y="382" width="84" height="72" fill="#493727"/>
<rect x="0" y="650" width="1600" height="250" fill="#211d1b" opacity="0.26"/>
<text x="104" y="122" font-family="Georgia, serif" font-size="48" fill="#c0b7a6">Harbor</text>
</svg>