<svg xmlns="http://www.w3.org/2000/svg" width="1024" height="1024" viewBox="0 0 1024 1024">
<rect width="1024" height="1024" fill="#3a3432"/>
<rect x="120" y="120" width="784" height="784" rx="44" fill="#5c5551"/>
<polygon points="120,120 904,120 904,220 120,340" fill="#8b817b" opacity="0.18"/>
<polygon points="120,904 904,904 904,664 120,744" fill="#211d1b" opacity="0.22"/>
<path d="M250 820 C310 690 420 628 512 628 C604 628 714 690 774 820 L774 904 L250 904 Z" fill="#6d7662"/>
<path d="M512 628 C604 628 714 690 774 820 L774 904 L512 904 Z" fill="#59664d"/>
<rect x="468" y="556" width="88" height="92" rx="22" fill="#8d684c"/>
<ellipse cx="512" cy="430" rx="170" ry="188" fill="#b38a63"/>
<path d="M348 388 C360 296 432 236 516 236 C606 236 676 296 676 388 C646 360 620 330 610 298 C570 338 506 364 418 384 C408 440 414 494 440 532 C392 506 352 452 348 388 Z" fill="#2f2927" opacity="0.95"/>
<path d="M308 396 C328 326 372 286 414 272 C390 316 388 380 400 430 C368 418 336 410 308 396 Z" fill="#59664d"/>
<path d="M714 396 C694 326 650 286 608 272 C632 316 634 380 622 430 C654 418 686 410 714 396 Z" fill="#59664d"/>
<path d="M436 438 Q474 420 502 438" fill="none" stroke="#211d1b" stroke-width="12" stroke-linecap="round"/>
<path d="M522 438 Q550 420 588 438" fill="none" stroke="#211d1b" stroke-width="12" stroke-linecap="round"/>
<line x1="432" y1="396" x2="492" y2="382" stroke="#211d1b" stroke-width="14" stroke-linecap="round"/>
<line x1="532" y1="382" x2="592" y2="396" stroke="#211d1b" stroke-width="14" stroke-linecap="round"/>
<path d="M520 414 C542 444 540 481 510 500 C531 501 549 496 560 485" fill="none" stroke="#8d684c" stroke-width="15" stroke-linecap="round"/>
<path d="M462 540 Q512 558 562 540" fill="none" stroke="#5d2f2b" stroke-width="12" stroke-linecap="round"/>
<path d="M430 630 Q512 700 594 630" fill="none" stroke="#b49b73" stroke-width="12" stroke-linecap="round"/>
<circle cx="512" cy="680" r="18" fill="#b49b73"/>
<circle cx="400" cy="350" r="16" fill="#b49b73"/>
<circle cx="624" cy="350" r="16" fill="#b49b73"/>
<path d="M334 720 L512 628 L690 720 L690 904 L334 904 Z" fill="#59664d" opacity="0.65"/>
<rect x="160" y="140" width="704" height="744" rx="26" fill="none" stroke="#9f9585" stroke-width="12" opacity="0.45"/>
<text x="512" y="955" text-anchor="middle" font-family="Georgia, Times New Roman, serif" font-size="42" fill="#c0b7a6">INTERPRETER</text>
<text x="512" y="990" text-anchor="middle" font-family="Georgia, Times New Roman, serif" font-size="20" letter-spacing="3" fill="#b49b73" opacity="0.9">NERIA</text>
</svg>