<svg xmlns="http://www.w3.org/2000/svg" width="1024" height="1024" viewBox="0 0 1024 1024">
<rect width="1024" height="1024" fill="#3a3432"/>
<rect x="120" y="120" width="784" height="784" rx="44" fill="#5c5551"/>
<polygon points="120,120 904,120 904,220 120,340" fill="#8b817b" opacity="0.18"/>
<polygon points="120,904 904,904 904,664 120,744" fill="#211d1b" opacity="0.22"/>
<path d="M250 820 C310 690 420 628 512 628 C604 628 714 690 774 820 L774 904 L250 904 Z" fill="#c6b9a5"/>
<path d="M512 628 C604 628 714 690 774 820 L774 904 L512 904 Z" fill="#9f9585"/>
<rect x="468" y="556" width="88" height="92" rx="22" fill="#8d684c"/>
<ellipse cx="512" cy="430" rx="170" ry="188" fill="#b78c67"/>
<path d="M366 386 C370 292 438 236 514 236 C592 236 658 290 660 386 C624 362 592 334 578 306 C542 336 486 360 430 372 C424 422 430 468 446 506 C402 486 366 440 366 386 Z" fill="#2c2523" opacity="0.95"/>
<path d="M382 278 Q512 214 642 278" fill="none" stroke="#b49b73" stroke-width="12" opacity="0.7"/>
<path d="M436 438 Q474 420 502 438" fill="none" stroke="#211d1b" stroke-width="12" stroke-linecap="round"/>
<path d="M522 438 Q550 420 588 438" fill="none" stroke="#211d1b" stroke-width="12" stroke-linecap="round"/>
<line x1="432" y1="396" x2="492" y2="382" stroke="#211d1b" stroke-width="14" stroke-linecap="round"/>
<line x1="532" y1="382" x2="592" y2="396" stroke="#211d1b" stroke-width="14" stroke-linecap="round"/>
<path d="M520 414 C542 444 540 481 510 500 C531 501 549 496 560 485" fill="none" stroke="#8d684c" stroke-width="15" stroke-linecap="round"/>
<path d="M462 540 Q512 558 562 540" fill="none" stroke="#4d2825" stroke-width="12" stroke-linecap="round"/>
<rect x="602" y="706" width="144" height="116" rx="18" fill="#6a5038"/>
<rect x="622" y="728" width="104" height="72" rx="10" fill="#7a623b"/>
<line x1="628" y1="744" x2="714" y2="744" stroke="#c0b7a6" stroke-width="6" opacity="0.6"/>
<line x1="628" y1="764" x2="714" y2="764" stroke="#c0b7a6" stroke-width="6" opacity="0.6"/>
<rect x="712" y="656" width="18" height="118" rx="8" transform="rotate(20 721 715)" fill="#b49b73"/>
<polygon points="748,640 764,652 732,690 716,678" fill="#211d1b"/>
<path d="M320 748 L512 628 L704 748 L704 904 L320 904 Z" fill="#c0b7a6" opacity="0.76"/>
<rect x="160" y="140" width="704" height="744" rx="26" fill="none" stroke="#9f9585" stroke-width="12" opacity="0.45"/>
<text x="512" y="955" text-anchor="middle" font-family="Georgia, Times New Roman, serif" font-size="42" fill="#c0b7a6">SCRIBE</text>
<text x="512" y="990" text-anchor="middle" font-family="Georgia, Times New Roman, serif" font-size="20" letter-spacing="3" fill="#b49b73" opacity="0.9">CLERK</text>
</svg>