<svg xmlns="http://www.w3.org/2000/svg" width="1024" height="1024" viewBox="0 0 1024 1024">
<rect width="1024" height="1024" fill="#3a3432"/>
<rect x="120" y="120" width="784" height="784" rx="44" fill="#5c5551"/>
<polygon points="120,120 904,120 904,220 120,340" fill="#8b817b" opacity="0.18"/>
<polygon points="120,904 904,904 904,664 120,744" fill="#211d1b" opacity="0.22"/>
<path d="M250 820 C310 690 420 628 512 628 C604 628 714 690 774 820 L774 904 L250 904 Z" fill="#93a0ae"/>
<path d="M512 628 C604 628 714 690 774 820 L774 904 L512 904 Z" fill="#617286"/>
<rect x="468" y="556" width="88" height="92" rx="22" fill="#8d684c"/>
<ellipse cx="512" cy="430" rx="170" ry="188" fill="#b88f68"/>
<path d="M360 386 C364 298 434 242 514 242 C596 242 664 298 668 386 C642 374 614 348 594 316 C554 348 482 378 410 388 C404 432 410 470 426 508 C386 486 360 440 360 386 Z" fill="#312a27" opacity="0.96"/>
<path d="M436 438 Q474 420 502 438" fill="none" stroke="#211d1b" stroke-width="12" stroke-linecap="round"/>
<path d="M522 438 Q550 420 588 438" fill="none" stroke="#211d1b" stroke-width="12" stroke-linecap="round"/>
<line x1="432" y1="396" x2="492" y2="382" stroke="#211d1b" stroke-width="14" stroke-linecap="round"/>
<line x1="532" y1="382" x2="592" y2="396" stroke="#211d1b" stroke-width="14" stroke-linecap="round"/>
<path d="M520 414 C542 444 540 481 510 500 C531 501 549 496 560 485" fill="none" stroke="#8d684c" stroke-width="15" stroke-linecap="round"/>
<path d="M462 540 Q512 558 562 540" fill="none" stroke="#4d2825" stroke-width="12" stroke-linecap="round"/>
<path d="M308 724 L512 628 L716 724 L716 904 L308 904 Z" fill="#c0b7a6" opacity="0.85"/>
<path d="M308 724 L512 628 L716 724 L512 904 L308 904 Z" fill="#9f9585" opacity="0.35"/>
<rect x="454" y="684" width="116" height="18" rx="8" fill="#6a5038"/>
<rect x="724" y="654" width="18" height="208" rx="6" fill="#b49b73"/>
<rect x="700" y="678" width="66" height="12" rx="5" fill="#b49b73"/>
<line x1="732" y1="654" x2="732" y2="860" stroke="#211d1b" stroke-width="4" opacity="0.35"/>
<line x1="288" y1="650" x2="288" y2="822" stroke="#b49b73" stroke-width="8"/>
<polygon points="288,842 274,806 302,806" fill="#b49b73"/>
<circle cx="512" cy="694" r="20" fill="#b49b73"/>
<rect x="160" y="140" width="704" height="744" rx="26" fill="none" stroke="#9f9585" stroke-width="12" opacity="0.45"/>
<text x="512" y="955" text-anchor="middle" font-family="Georgia, Times New Roman, serif" font-size="42" fill="#c0b7a6">SURVEYOR</text>
<text x="512" y="990" text-anchor="middle" font-family="Georgia, Times New Roman, serif" font-size="20" letter-spacing="3" fill="#b49b73" opacity="0.9">RUSO</text>
</svg>