<svg xmlns="http://www.w3.org/2000/svg" width="1024" height="1024" viewBox="0 0 1024 1024">

<rect width="1024" height="1024" fill="#3a3432"/>
<rect x="120" y="120" width="784" height="784" rx="44" fill="#5c5551"/>
<polygon points="120,120 904,120 904,220 120,340" fill="#8b817b" opacity="0.18"/>
<polygon points="120,904 904,904 904,664 120,744" fill="#211d1b" opacity="0.22"/>
<path d="M250 820 C310 690 420 628 512 628 C604 628 714 690 774 820 L774 904 L250 904 Z" fill="#6f3b37"/>
<path d="M512 628 C604 628 714 690 774 820 L774 904 L512 904 Z" fill="#4d2825"/>
<rect x="468" y="556" width="88" height="92" rx="22" fill="#8d684c"/>
<ellipse cx="512" cy="430" rx="170" ry="188" fill="#b58a65"/>
<path d="M512 242 C601 246 671 317 680 413 C646 390 619 358 597 318 C553 352 486 378 407 390 C400 434 405 470 421 516 C380 490 352 437 352 390 C352 308 422 242 512 242 Z" fill="#211d1b" opacity="0.92"/>
<path d="M412 490 C452 518 572 520 612 490 C584 569 441 569 412 490 Z" fill="#8d684c"/>
<path d="M520 414 C542 444 540 481 510 500 C531 501 549 496 560 485" fill="none" stroke="#8d684c" stroke-width="15" stroke-linecap="round"/>
<path d="M436 438 Q474 420 502 438" fill="none" stroke="#211d1b" stroke-width="12" stroke-linecap="round"/>
<path d="M522 438 Q550 420 588 438" fill="none" stroke="#211d1b" stroke-width="12" stroke-linecap="round"/>
<line x1="432" y1="396" x2="492" y2="382" stroke="#211d1b" stroke-width="14" stroke-linecap="round"/>
<line x1="532" y1="382" x2="592" y2="396" stroke="#211d1b" stroke-width="14" stroke-linecap="round"/>
<path d="M462 540 Q512 558 562 540" fill="none" stroke="#4d2825" stroke-width="12" stroke-linecap="round"/>
<rect x="160" y="140" width="704" height="744" rx="26" fill="none" stroke="#9f9585" stroke-width="12" opacity="0.45"/>
<text x="512" y="955" text-anchor="middle" font-family="Georgia, Times New Roman, serif" font-size="42" fill="#c0b7a6">LEGATE</text>
<text x="512" y="990" text-anchor="middle" font-family="Georgia, Times New Roman, serif" font-size="20" letter-spacing="3" fill="#b49b73" opacity="0.9">GOVERNOR'S VOICE</text>
</svg>